# xmcd
#
# Track frame offsets:
#	150
#	27364
#	41989
#	69339
#	85525
#	103920
#	121466
#	136169
#	153394
#	169647
#	189718
#	206024
#	231679
#	248977
#	271102
#	294772
#	309108
#	325526
#	341871
#
# Disc length: 4797 seconds
#
# Revision: 1
# Processed by: cddbd v1.4PL0 Copyright (c) Steve Scherf et al.
# Submitted via: audiograbber 1.81.02
#
DISCID=0e12bb13
DTITLE=a - a
DYEAR=2222
DGENRE=
TTITLE0=szám  kj
TTITLE1=4
TTITLE2=7
TTITLE3=p
TTITLE4=p
TTITLE5=i
TTITLE6=u
TTITLE7=j
TTITLE8=f
TTITLE9=f
TTITLE10=f
TTITLE11=j
TTITLE12=j
TTITLE13=h
TTITLE14=h
TTITLE15=f
TTITLE16=7
TTITLE17=u
TTITLE18=f
EXTD=
EXTT0=
EXTT1=
EXTT2=
EXTT3=
EXTT4=
EXTT5=
EXTT6=
EXTT7=
EXTT8=
EXTT9=
EXTT10=
EXTT11=
EXTT12=
EXTT13=
EXTT14=
EXTT15=
EXTT16=
EXTT17=
EXTT18=
PLAYORDER=
